<svg aria-hidden="true" style="position: absolute; width: 0; height: 0; overflow: hidden;" version="1.1" xmlns="http://www.w3.org/2000/svg" xmlns:xlink="http://www.w3.org/1999/xlink">
<defs>
<symbol id="backet" viewBox="0 0 29 32">
<path fill="#f33" style="fill: var(--color1, #f33)" d="M27.6 5.6h-6v-1.2c0-0.955-0.379-1.87-1.054-2.546s-1.591-1.054-2.546-1.054h-7.2c-0.955 0-1.87 0.379-2.546 1.054s-1.054 1.591-1.054 2.546v1.2h-6c-0.318 0-0.624 0.126-0.849 0.351s-0.351 0.53-0.351 0.849c0 0.318 0.126 0.623 0.351 0.849s0.53 0.351 0.849 0.351h1.2v21.6c0 0.636 0.253 1.247 0.703 1.697s1.061 0.703 1.697 0.703h19.2c0.636 0 1.247-0.253 1.697-0.703s0.703-1.061 0.703-1.697v-21.6h1.2c0.318 0 0.624-0.126 0.848-0.351s0.352-0.53 0.352-0.849-0.126-0.623-0.352-0.849c-0.225-0.225-0.53-0.351-0.848-0.351zM12 23.6c0 0.318-0.126 0.624-0.351 0.848s-0.53 0.352-0.849 0.352-0.623-0.126-0.849-0.352c-0.225-0.225-0.351-0.53-0.351-0.848v-9.6c0-0.318 0.126-0.623 0.351-0.849s0.53-0.351 0.849-0.351c0.318 0 0.623 0.126 0.849 0.351s0.351 0.53 0.351 0.849v9.6zM19.2 23.6c0 0.318-0.126 0.624-0.352 0.848s-0.53 0.352-0.848 0.352-0.624-0.126-0.848-0.352c-0.225-0.225-0.352-0.53-0.352-0.848v-9.6c0-0.318 0.126-0.623 0.352-0.849s0.53-0.351 0.848-0.351 0.624 0.126 0.848 0.351c0.225 0.225 0.352 0.53 0.352 0.849v9.6zM19.2 5.6h-9.6v-1.2c0-0.318 0.126-0.623 0.351-0.849s0.53-0.351 0.849-0.351h7.2c0.318 0 0.624 0.126 0.848 0.351s0.352 0.53 0.352 0.849v1.2z"></path>
</symbol>
</defs>
</svg>
