<svg aria-hidden="true" style="position: absolute; width: 0; height: 0; overflow: hidden;" version="1.1" xmlns="http://www.w3.org/2000/svg" xmlns:xlink="http://www.w3.org/1999/xlink">
<defs>
<symbol id="a" viewBox="0 0 148 32">
<path fill="#fff" style="fill: var(--color1, #fff)" d="M133.453 9.688l-0.275 0.087c-1.066-2.206-2.591-3.961-4.572-5.267-1.951-1.306-4.405-1.959-7.362-1.959-1.646 0-3.216 0.334-4.71 1.001-1.494 0.639-2.805 1.553-3.932 2.743-1.097 1.161-1.982 2.568-2.652 4.223s-1.006 3.483-1.006 5.485c0 2.002 0.335 3.831 1.006 5.485s1.555 3.076 2.652 4.266c1.128 1.161 2.439 2.061 3.932 2.699s3.064 0.958 4.71 0.958c2.926 0 5.304-0.435 7.133-1.306 1.86-0.9 3.43-2.264 4.71-4.092l0.275 0.087-0.091 2.786c-0.701 0.696-1.509 1.32-2.424 1.872-0.915 0.522-1.905 0.972-2.972 1.35-1.036 0.348-2.119 0.609-3.246 0.784-1.128 0.203-2.256 0.305-3.384 0.305-2.347 0-4.587-0.363-6.721-1.088s-4.009-1.741-5.624-3.047c-1.616-1.335-2.896-2.931-3.841-4.789-0.945-1.886-1.418-3.976-1.418-6.269s0.473-4.368 1.418-6.225c0.945-1.886 2.225-3.497 3.841-4.832s3.49-2.351 5.624-3.047c2.134-0.726 4.374-1.088 6.721-1.088 1.128 0 2.256 0.087 3.384 0.261s2.21 0.45 3.246 0.827c1.067 0.348 2.057 0.798 2.972 1.35 0.915 0.522 1.722 1.132 2.424 1.828l0.183 4.615zM32.691 18.003c-0.335 0.145-0.655 0.334-0.96 0.566s-0.457 0.551-0.457 0.958v5.354c-1.463 2.003-3.338 3.555-5.624 4.658s-4.817 1.654-7.591 1.654c-2.347 0-4.588-0.363-6.722-1.088s-4.009-1.741-5.624-3.047c-1.616-1.335-2.896-2.931-3.841-4.789-0.945-1.886-1.417-3.976-1.417-6.269s0.472-4.368 1.417-6.225c0.945-1.886 2.225-3.497 3.841-4.832s3.49-2.351 5.624-3.047c2.134-0.726 4.374-1.088 6.722-1.088 1.128 0 2.256 0.087 3.384 0.261s2.21 0.45 3.247 0.827c1.067 0.348 2.058 0.798 2.972 1.35 0.915 0.522 1.722 1.132 2.424 1.828l0.183 4.614-0.274 0.087c-1.067-2.206-2.591-3.961-4.573-5.267-1.951-1.306-4.405-1.959-7.362-1.959-1.646 0-3.216 0.334-4.71 1.001-1.494 0.638-2.805 1.553-3.933 2.743-1.097 1.161-1.982 2.568-2.652 4.223s-1.006 3.483-1.006 5.485c0 1.973 0.32 3.787 0.96 5.441 0.671 1.654 1.555 3.076 2.652 4.266 1.128 1.161 2.439 2.075 3.932 2.742 1.494 0.639 3.079 0.958 4.755 0.958 3.17 0 5.883-0.58 8.139-1.741v-8.141c0-0.406-0.168-0.725-0.503-0.958-0.305-0.232-0.61-0.421-0.915-0.566l0.042-0.217c0.152 0.027 0.427 0.056 0.823 0.087 0.397 0.027 0.808 0.056 1.235 0.087h3.933c0.366-0.027 0.716-0.055 1.052-0.087 0.335-0.027 0.594-0.055 0.777-0.087l0.049 0.218zM65.811 1.722c-0.305 0.145-0.61 0.334-0.915 0.566s-0.473 0.667-0.503 1.306c-0.028 0.697-0.058 1.582-0.091 2.655 0 1.045-0.014 2.235-0.042 3.57 0 1.335-0.014 2.786-0.042 4.353v4.876c-0.028 1.886-0.272 3.497-0.732 4.832-0.457 1.335-1.067 2.452-1.829 3.352-0.732 0.9-1.555 1.611-2.469 2.133-0.884 0.522-1.768 0.914-2.652 1.175-0.854 0.29-1.661 0.464-2.423 0.522-0.762 0.087-1.357 0.131-1.783 0.131-1.737 0-3.414-0.218-5.030-0.653-1.616-0.406-3.033-1.074-4.252-2.003s-2.195-2.133-2.926-3.613c-0.732-1.48-1.097-3.279-1.097-5.398v-9.447c0-1.393-0.014-2.641-0.042-3.744 0-1.132-0.014-2.046-0.042-2.743-0.028-0.639-0.195-1.074-0.503-1.306-0.305-0.232-0.61-0.421-0.915-0.566l0.042-0.217c0.152 0.027 0.396 0.055 0.732 0.087 0.366 0.027 0.732 0.055 1.097 0.087 0.397 0 0.778 0.013 1.143 0.040h1.646c0.366-0.027 0.747-0.040 1.143-0.040 0.397-0.027 0.762-0.055 1.097-0.087 0.366-0.027 0.625-0.055 0.777-0.087l0.042 0.217c-0.335 0.145-0.655 0.334-0.96 0.566-0.274 0.232-0.427 0.667-0.458 1.306-0.028 0.697-0.058 1.611-0.091 2.743v13.19c0 3.163 0.777 5.499 2.332 7.009s3.856 2.264 6.905 2.264c0.884 0 1.89-0.102 3.018-0.305 1.128-0.232 2.18-0.696 3.155-1.393 1.006-0.697 1.844-1.683 2.515-2.96 0.701-1.277 1.052-2.975 1.052-5.093 0-2.293-0.014-4.252-0.042-5.877 0-1.654-0.014-3.062-0.042-4.223 0-1.19-0.014-2.206-0.042-3.047s-0.058-1.611-0.091-2.307c-0.028-0.639-0.195-1.074-0.503-1.306-0.305-0.232-0.61-0.421-0.914-0.566l0.042-0.217c0.335 0.058 0.716 0.116 1.143 0.174 0.427 0.027 0.823 0.040 1.189 0.040 0.335 0 0.716-0.013 1.143-0.040 0.457-0.058 0.854-0.116 1.189-0.174l0.029 0.218zM98.991 9.688l-0.275 0.087c-1.066-2.206-2.591-3.961-4.572-5.267-1.951-1.306-4.405-1.959-7.362-1.959-1.646 0-3.216 0.334-4.71 1.001-1.494 0.639-2.805 1.553-3.932 2.743-1.097 1.161-1.981 2.568-2.652 4.223s-1.006 3.483-1.006 5.485 0.335 3.831 1.006 5.485c0.671 1.654 1.555 3.076 2.652 4.266 1.128 1.161 2.439 2.061 3.932 2.699s3.064 0.958 4.71 0.958c2.927 0 5.304-0.435 7.133-1.306 1.86-0.9 3.43-2.264 4.71-4.092l0.275 0.087-0.091 2.786c-0.701 0.696-1.51 1.32-2.424 1.872-0.915 0.522-1.906 0.972-2.972 1.35-1.036 0.348-2.119 0.609-3.247 0.784-1.128 0.203-2.256 0.305-3.384 0.305-2.347 0-4.588-0.363-6.722-1.088s-4.009-1.741-5.624-3.047c-1.616-1.335-2.896-2.931-3.841-4.789-0.945-1.886-1.418-3.976-1.418-6.269s0.472-4.368 1.418-6.225c0.945-1.886 2.225-3.497 3.841-4.832s3.49-2.351 5.624-3.047c2.134-0.726 4.374-1.088 6.722-1.088 1.128 0 2.256 0.087 3.384 0.261s2.21 0.45 3.247 0.827c1.067 0.348 2.058 0.798 2.972 1.35 0.914 0.522 1.722 1.132 2.424 1.828l0.183 4.615zM147.235 30.453c-0.152-0.027-0.411-0.056-0.776-0.087-0.335 0-0.701-0.013-1.097-0.040-0.397 0-0.778-0.013-1.144-0.040h-2.744c-0.365 0.027-0.731 0.055-1.097 0.087-0.335 0.027-0.594 0.055-0.776 0.087l-0.042-0.174c0.305-0.145 0.61-0.334 0.915-0.566s0.472-0.667 0.503-1.306c0.028-0.697 0.041-1.422 0.041-2.177 0.028-0.755 0.042-1.611 0.042-2.568v-15.367c0-0.958-0.014-1.799-0.042-2.525 0-0.755-0.013-1.48-0.041-2.177-0.028-0.639-0.196-1.074-0.503-1.306-0.305-0.261-0.61-0.464-0.915-0.609l0.042-0.174c0.183 0.058 0.441 0.101 0.776 0.131 0.366 0 0.732 0.013 1.097 0.040 0.396 0.027 0.777 0.040 1.144 0.040h1.6c0.366-0.027 0.747-0.040 1.144-0.040 0.396-0.027 0.762-0.055 1.097-0.087 0.365-0.027 0.624-0.055 0.776-0.087l0.042 0.174c-0.335 0.145-0.655 0.348-0.961 0.609-0.274 0.232-0.426 0.667-0.457 1.306-0.027 0.697-0.058 1.422-0.091 2.177v20.46c0.028 0.755 0.058 1.48 0.091 2.177 0.028 0.639 0.181 1.074 0.457 1.306 0.306 0.232 0.626 0.421 0.961 0.566l-0.042 0.17z"></path>
</symbol>
<symbol id="b" viewBox="0 0 195 32">
<path fill="#fff" style="fill: var(--color1, #fff); stroke: var(--color1, #fff)" stroke="#fff" stroke-linejoin="miter" stroke-linecap="butt" stroke-miterlimit="2.613" stroke-width="1.0242" d="M0.482 0.902l25.136-0.071c3.834 0.69 7.137 4.16 7.198 9.569-0.192 5.582-4.191 8.343-8.081 9.638l-12.833-0.070 0.249 8.716 2.399 2.914-13.309-0.020 2.173-3.167v-24.202l-2.932-3.307zM11.427 2.45v15.548l9.846 0.071c2.24-1.807 3.939-3.19 3.871-7.528-0.032-3.537-0.779-6.621-4.075-8.091l-9.642-0.001zM38.975 0.725l25.135-0.070c3.835 0.69 7.138 4.16 7.198 9.568-0.193 5.582-4.191 8.343-8.081 9.638l-9.792-0.053 3.064 2.61h8.694l10.415 9.008-11.411 0.093-13.75-11.728h-0.053l0.249 8.716 2.399 2.914-13.309-0.019 2.173-3.168v-24.202l-2.932-3.308zM49.919 2.273v15.548l9.846 0.071c2.241-1.807 3.939-3.19 3.871-7.529-0.032-3.536-0.779-6.621-4.075-8.091h-9.642zM86.595 0.691l1.847 0.764 4.332 5.779v1.478l-10.252 21.599-2.717 0.844 6.247 0.141-1.019-0.985c-0.521-0.815 0.181-1.313 0.272-1.969l2.716-5.77 12.698-0.071 3.735 5.981 0.136 2.064-2.174 0.68h14.464c-1.291-0.939-3.224-0.674-3.871-2.815l-14.938-27.72h-11.476zM88.824 20.598l5.274-9.985 5.491 9.929-10.765 0.056zM164.197 0.751l1.847 0.764 4.332 5.778v1.479l-10.253 21.599-2.716 0.844 6.246 0.141-1.019-0.985c-0.52-0.815 0.181-1.313 0.272-1.971l2.716-5.768 12.698-0.071 3.735 5.979 0.136 2.064-2.174 0.681h14.465c-1.291-0.939-3.225-0.674-3.871-2.815l-14.939-27.72h-11.475zM166.425 20.659l5.274-9.985 5.492 9.928-10.766 0.058zM120.849 0.402l20.443 0.113c6.583 1.542 10.772 5.564 12.071 12.58l-0.055 5.472c-1.2 6.252-5.133 10.565-12.070 12.749l-20.498 0.058-0.003-0.662c3.116-0.235 3.365-0.591 3.373-2.441v-24.935c-0.035-1.368-0.308-2.219-3.316-2.313l0.055-0.62zM132.469 2.536l-0.019 26.978c2.696 0.009 5.035 0.262 6.356-0.413 2.995-1.368 4.385-3.468 4.513-5.441l-0.072-15.93c0.001-2.548-2.765-4.347-4.362-4.816-1.142-0.423-3.42-0.441-6.416-0.378z"></path>
</symbol>
<symbol id="c" viewBox="0 0 196 32">
<path fill="#fff" style="fill: var(--color1, #fff)" d="M16.122 28.661c-6.813 0-12.628-6.179-12.628-12.919 0-6.715 5.694-13.017 12.579-13.017 4.526 0 7.785 2.19 10.438 5.621h3.333c-0.998-1.801-2.068-3.455-3.698-4.745-2.798-2.263-6.424-3.6-10.024-3.6-8.638 0-15.669 7.129-15.669 15.718 0 8.613 7.129 15.669 15.718 15.669 3.504 0 6.935-1.289 9.684-3.455 1.728-1.387 2.944-3.187 4.112-5.037h-3.333c-2.629 3.431-5.986 5.766-10.512 5.766zM50.672 12.238c-2.092-2.701-4.939-4.404-8.467-4.404-6.326 0-11.533 5.135-11.533 11.461 0 6.325 5.232 11.508 11.533 11.508 3.674 0 6.228-1.533 8.467-4.356v3.844h2.749v-21.922h-2.749v3.869zM42.060 28.272c-4.843 0-8.663-4.209-8.663-8.953 0-4.721 3.796-8.954 8.663-8.954 4.841 0 8.613 4.234 8.613 8.954 0 4.744-3.796 8.953-8.613 8.953zM56.755 30.291h2.945v-29.66h-2.945v29.66zM70.818 26.811l-7.445-18.442h-2.92l8.93 21.922h2.968l8.906-21.922h-2.871l-7.567 18.442zM82.473 30.291h2.944v-21.922h-2.944v21.922zM82.473 5.547h2.944v-4.915h-2.944v4.915zM98.093 7.833c-2.774 0-4.744 1.461-6.569 3.407v-2.871h-2.726v21.922h2.895v-13.358c-0.024-3.528 2.896-6.568 6.448-6.568 4.452 0 6.69 3.869 6.69 7.859v12.068h2.725v-12.068c0.001-5.693-3.331-10.39-9.463-10.39zM134.881 0.631l-13.382 17.008v-17.008h-2.895v29.66h2.895v-8.151l3.796-4.72 9.659 12.87h3.675l-11.486-15.207 11.486-14.453h-3.749zM139.699 30.291h2.872v-29.66h-2.872v29.66zM166.342 13.892c-1.995-3.723-5.986-6.059-10.196-6.059-6.277 0-11.582 5.232-11.582 11.509 0 6.325 5.353 11.46 11.633 11.46 2.991 0 5.937-1.192 8.101-3.26 1.315-1.241 2.093-2.798 2.797-4.429h-3.089c-1.558 3.042-4.308 5.158-7.861 5.158-2.164 0-4.281-0.876-5.886-2.36-1.656-1.507-2.386-3.358-2.703-5.547h20.221c0.001-2.287-0.316-4.476-1.435-6.472zM147.655 17.834c0.878-4.111 4.112-7.469 8.542-7.469 3.722 0 7.713 2.288 8.588 7.469h-17.13zM169.919 30.291h2.894v-21.922h-2.894v21.922zM169.919 5.645h2.894v-5.013h-2.894v5.013zM185.54 7.833c-2.824 0-4.794 1.461-6.644 3.407v-2.871h-2.774v21.922h2.92v-13.358c-0.024-3.552 2.969-6.568 6.545-6.568 4.429 0 6.766 3.869 6.766 7.859v12.068h2.725v-12.068c0-5.693-3.384-10.39-9.538-10.39z"></path>
</symbol>
<symbol id="d" viewBox="0 0 77 32">
<path fill="#fff" style="fill: var(--color1, #fff)" d="M73.107 31.047l-11.361-31.040h-0.224l-6.594 17.979-0.010-0.009c-1.475-1.292-3.556-2.099-6.178-2.4l-0.799-0.082 0.793-0.101c4.322-0.771 7.228-3.48 7.228-6.744 0-4.476-4.242-7.6-10.319-7.6h-12.643v0.227h3.674v23.127l-8.93-24.398h-0.224l-11.356 30.96-0.055 0.006c-0.154 0.019-0.307 0.034-0.457 0.045-0.227 0.018-0.452 0.028-0.679 0.028h-9.111l17.448-29.993h-21.183v9.209h0.225c0.040-4.486 2.672-8.985 8.489-8.985h7.017l-17.451 29.993h23.509v-8.823h-0.225c-0.031 3.91-2.264 7.623-7.121 8.462l-0.154 0.026 3.699-10.089h10.361l3.733 10.201h-3.683v0.223h14.455v-0.223h-3.699v-15.387h4.268c4.343 0 6.834 1.925 6.834 5.281v2.73c0 0.301 0.021 0.74 0.043 1.108v0.013l-2.294 6.254h-2.997v0.223h6.203v-0.223h-2.964l2.089-5.695c0.004 0.055 0.006 0.088 0.006 0.088l0.058 0.513 0.056 0.339c0.349 2.1 1.158 3.644 2.405 4.588l0.179 0.129c0.947 0.654 2.125 0.985 3.501 0.985 1.823 0 3.039-0.451 4.042-1.513l-0.132-0.123c-0.925 0.847-1.701 1.19-2.673 1.19-1.657 0-2.524-1.994-2.524-3.96v-3.824c0.009-0.949-0.141-1.893-0.443-2.793l-0.041-0.119v-0.004h7.579l3.733 10.201h-3.683v0.223h12.509v-0.223l-3.931-0.001zM20.196 20.623l5.104-13.916 5.093 13.916h-10.197zM41.285 15.436v-14.159h3.258c4.352 0 6.649 2.567 6.649 7.421 0 5.163-1.319 6.737-5.641 6.737h-4.266zM56.81 20.623l-0.022-0.055c-0.337-0.814-0.827-1.557-1.445-2.188l-0.213-0.212-0.023-0.021 4.192-11.44 5.093 13.916h-7.582z"></path>
</symbol>
<symbol id="e" viewBox="0 0 157 32">
<path fill="#fff" style="fill: var(--color1, #fff)" d="M141.345 0.617h15.344v2.445c-0.446-0.15-0.912-0.227-1.383-0.228h-8.82v11.424h8.58c0.616 0 1.165-0.068 1.622-0.183v2.434c-0.389-0.091-0.924-0.137-1.588-0.137h-8.614v11.813h8.556c0.47 0 1.029-0.068 1.645-0.217v2.628h-15.32c0.122-0.462 0.184-0.938 0.184-1.416v-27.112c0-0.594-0.069-1.085-0.206-1.451zM137.793 8.397l-4.433-0.034c-0.217-2.491-1.645-4.903-4.787-5.347-6.729-0.606-8.626 6.785-8.455 12.19 0.172 5.209 1.005 13.218 7.952 13.218 2.914 0 5.712-2.994 5.621-5.518l4.102-0.034c-0.297 5.209-6.272 8.225-9.117 8.328-9.721 0.332-13.79-6.147-13.995-15.39-0.183-8.373 3.245-15.811 12.853-15.811 8.226 0.115 9.814 4.982 10.26 8.397zM68.65 27.191l2.937-2.456c1.53 2.525 2.787 3.678 5.826 3.678 3.084 0 5.678-1.873 5.678-5.186 0-1.634-0.663-2.971-1.977-3.976-0.595-0.469-2.103-1.28-4.479-2.411-3.553-1.702-7.014-3.919-7.014-8.374 0-5.621 4.775-8.101 9.813-8.284 2.982-0.114 6.684 1.532 8.18 3.382l-2.982 2.296c-0.532-0.992-1.322-1.822-2.288-2.401s-2.070-0.886-3.196-0.888c-3.805 0-6.821 4.41-3.668 7.449 0.799 0.777 2.434 1.736 4.925 2.878 3.975 1.863 7.368 4.090 7.368 9.014 0 1.702-0.446 3.29-1.325 4.741-1.77 2.925-4.73 4.387-8.865 4.387-4.753 0-5.689-1.085-8.935-3.851zM26.813 0.617h15.331v2.445c-0.445-0.15-0.912-0.227-1.382-0.228h-8.819v11.424h8.58c0.617 0 1.166-0.068 1.622-0.183v2.434c-0.389-0.091-0.925-0.137-1.576-0.137h-8.626v11.813h8.557c0.468 0 1.029-0.068 1.645-0.217v2.628h-15.308c0.112-0.464 0.169-0.939 0.171-1.416v-27.112c0-0.594-0.069-1.085-0.194-1.451zM0 0.617h5.575v0.275c0 0.251 0.080 0.582 0.217 1.005l7.859 23.66 8.066-23.764c0.125-0.399 0.194-0.788 0.194-1.177h2.708c-0.274 0.48-0.48 0.903-0.606 1.28l-9.209 27.477c-0.091 0.263-0.171 0.674-0.239 1.223h-4.57c-0.069-0.415-0.172-0.824-0.308-1.223l-9.025-27.26c-0.208-0.503-0.426-1.002-0.652-1.497h-0.011zM59.214 16.247c3.656-0.72 6.455-3.519 6.455-7.518 0-5.245-4.387-8.113-9.3-8.113h-8.98c0.125 0.458 0.194 0.937 0.194 1.44v27.099c0 0.583-0.069 1.074-0.194 1.44h5.347c-0.131-0.469-0.196-0.953-0.194-1.44v-12.452l1.713 0.183 8.958 13.709h5.381l-9.38-14.349zM58.288 13.962c-0.971 0.685-2.137 1.027-3.473 1.027h-2.285v-12.188h2.045c1.749 0 3.108 0.433 4.079 1.301 1.325 1.201 1.999 2.823 1.999 4.856 0 2.194-0.789 3.861-2.365 5.004zM113.789 29.351l-9.984-27.739c-0.111-0.321-0.177-0.655-0.195-0.994h-4.319c0 0.354-0.057 0.731-0.195 1.108l-9.676 27.626c-0.127 0.399-0.332 0.811-0.606 1.245h2.787c-0.011-0.457 0.046-0.88 0.172-1.245l2.866-8.147h11.025l2.834 8.147c0.149 0.444 0.216 0.856 0.216 1.244h5.782c-0.332-0.468-0.571-0.891-0.709-1.245zM95.396 18.999l4.661-13.538 4.788 13.538h-9.448z"></path>
</symbol>
</defs>
</svg>
