<svg aria-hidden="true" style="position: absolute; width: 0; height: 0; overflow: hidden;" version="1.1" xmlns="http://www.w3.org/2000/svg" xmlns:xlink="http://www.w3.org/1999/xlink">
<defs>
<symbol id="icon-minus" viewBox="0 0 160 32">
<path d="M155 16c0 2.387-0.948 4.676-2.636 6.364s-3.977 2.636-6.364 2.636h-132c-2.387 0-4.676-0.948-6.364-2.636s-2.636-3.977-2.636-6.364 0.948-4.676 2.636-6.364c1.688-1.688 3.977-2.636 6.364-2.636h132c2.387 0 4.676 0.948 6.364 2.636s2.636 3.977 2.636 6.364z"></path>
</symbol>
<symbol id="icon-plus" viewBox="0 0 32 32">
<path d="M31 16c0 0.477-0.19 0.935-0.527 1.273s-0.795 0.527-1.273 0.527h-11.4v11.4c0 0.477-0.19 0.935-0.527 1.273s-0.795 0.527-1.273 0.527c-0.477 0-0.935-0.19-1.273-0.527s-0.527-0.795-0.527-1.273v-11.4h-11.4c-0.477 0-0.935-0.19-1.273-0.527s-0.527-0.795-0.527-1.273c0-0.477 0.19-0.935 0.527-1.273s0.795-0.527 1.273-0.527h11.4v-11.4c0-0.477 0.19-0.935 0.527-1.273s0.795-0.527 1.273-0.527c0.477 0 0.935 0.19 1.273 0.527s0.527 0.795 0.527 1.273v11.4h11.4c0.477 0 0.935 0.19 1.273 0.527s0.527 0.795 0.527 1.273z"></path>
</symbol>
</defs>
</svg>
