<svg aria-hidden="true" style="position: absolute; width: 0; height: 0; overflow: hidden;" version="1.1" xmlns="http://www.w3.org/2000/svg" xmlns:xlink="http://www.w3.org/1999/xlink">
<defs>
<symbol id="filter" viewBox="0 0 32 32">
<path fill="#f0f0f0" style="fill: var(--color1, #f0f0f0)" d="M16 0c8.837 0 16 7.163 16 16s-7.163 16-16 16c-8.837 0-16-7.163-16-16s7.163-16 16-16z"></path>
<path fill="#000" style="fill: var(--color2, #000)" d="M16.75 15.75v5.75c0 0.199-0.079 0.39-0.22 0.53s-0.331 0.22-0.53 0.22c-0.199 0-0.39-0.079-0.53-0.22s-0.22-0.331-0.22-0.53v-5.75c0-0.199 0.079-0.39 0.22-0.53s0.331-0.22 0.53-0.22c0.199 0 0.39 0.079 0.53 0.22s0.22 0.331 0.22 0.53zM20.5 20c-0.199 0-0.39 0.079-0.53 0.22s-0.22 0.331-0.22 0.53v0.75c0 0.199 0.079 0.39 0.22 0.53s0.331 0.22 0.53 0.22c0.199 0 0.39-0.079 0.53-0.22s0.22-0.331 0.22-0.53v-0.75c0-0.199-0.079-0.39-0.22-0.53s-0.331-0.22-0.53-0.22zM22 17.5h-0.75v-7c0-0.199-0.079-0.39-0.22-0.53s-0.331-0.22-0.53-0.22c-0.199 0-0.39 0.079-0.53 0.22s-0.22 0.331-0.22 0.53v7h-0.75c-0.199 0-0.39 0.079-0.53 0.22s-0.22 0.331-0.22 0.53c0 0.199 0.079 0.39 0.22 0.53s0.331 0.22 0.53 0.22h3c0.199 0 0.39-0.079 0.53-0.22s0.22-0.331 0.22-0.53c0-0.199-0.079-0.39-0.22-0.53s-0.331-0.22-0.53-0.22zM11.5 18c-0.199 0-0.39 0.079-0.53 0.22s-0.22 0.331-0.22 0.53v2.75c0 0.199 0.079 0.39 0.22 0.53s0.331 0.22 0.53 0.22c0.199 0 0.39-0.079 0.53-0.22s0.22-0.331 0.22-0.53v-2.75c0-0.199-0.079-0.39-0.22-0.53s-0.331-0.22-0.53-0.22zM13 15.5h-0.75v-5c0-0.199-0.079-0.39-0.22-0.53s-0.331-0.22-0.53-0.22c-0.199 0-0.39 0.079-0.53 0.22s-0.22 0.331-0.22 0.53v5h-0.75c-0.199 0-0.39 0.079-0.53 0.22s-0.22 0.331-0.22 0.53c0 0.199 0.079 0.39 0.22 0.53s0.331 0.22 0.53 0.22h3c0.199 0 0.39-0.079 0.53-0.22s0.22-0.331 0.22-0.53c0-0.199-0.079-0.39-0.22-0.53s-0.331-0.22-0.53-0.22zM17.5 12.5h-0.75v-2c0-0.199-0.079-0.39-0.22-0.53s-0.331-0.22-0.53-0.22c-0.199 0-0.39 0.079-0.53 0.22s-0.22 0.331-0.22 0.53v2h-0.75c-0.199 0-0.39 0.079-0.53 0.22s-0.22 0.331-0.22 0.53c0 0.199 0.079 0.39 0.22 0.53s0.331 0.22 0.53 0.22h3c0.199 0 0.39-0.079 0.53-0.22s0.22-0.331 0.22-0.53c0-0.199-0.079-0.39-0.22-0.53s-0.331-0.22-0.53-0.22z"></path>
</symbol>
</defs>
</svg>
