<svg aria-hidden="true" style="position: absolute; width: 0; height: 0; overflow: hidden;" version="1.1" xmlns="http://www.w3.org/2000/svg" xmlns:xlink="http://www.w3.org/1999/xlink">
<defs>
<symbol id="mailIcon" viewBox="0 0 32 32">
<path d="M28 5.5h-24c-0.398 0-0.779 0.158-1.061 0.439s-0.439 0.663-0.439 1.061v17c0 0.663 0.263 1.299 0.732 1.768s1.105 0.732 1.768 0.732h22c0.663 0 1.299-0.263 1.768-0.732s0.732-1.105 0.732-1.768v-17c0-0.398-0.158-0.779-0.439-1.061s-0.663-0.439-1.061-0.439zM16 15.965l-8.144-7.465h16.287l-8.144 7.465zM11.599 16l-6.099 5.59v-11.18l6.099 5.59zM13.819 18.035l1.167 1.071c0.277 0.254 0.638 0.394 1.014 0.394s0.737-0.141 1.014-0.394l1.167-1.071 5.963 5.465h-16.287l5.963-5.465zM20.401 16l6.099-5.59v11.18l-6.099-5.59z"></path>
</symbol>
</defs>
</svg>
