<svg aria-hidden="true" style="position: absolute; width: 0; height: 0; overflow: hidden;" version="1.1" xmlns="http://www.w3.org/2000/svg" xmlns:xlink="http://www.w3.org/1999/xlink">
<defs>
<symbol id="icon-Badge" viewBox="0 0 43 32">
<path fill="#fff" style="fill: var(--color1, #fff)" d="M10.043 3.265h23.417c1.94 0 3.513 1.573 3.513 3.513v12.587c0 1.94-1.573 3.513-3.513 3.513h-23.417c-1.94 0-3.513-1.573-3.513-3.513v-12.587c0-1.94 1.573-3.513 3.513-3.513z"></path>
<path fill="#1434cb" style="fill: var(--color2, #1434cb)" d="M21.565 9.875l-1.42 6.637h-1.717l1.42-6.637h1.717zM28.789 14.161l0.904-2.493 0.52 2.493h-1.424zM30.705 16.512h1.588l-1.386-6.637h-1.466c-0.329 0-0.607 0.192-0.731 0.487l-2.576 6.15h1.803l0.358-0.991h2.203l0.207 0.991zM26.224 14.345c0.007-1.752-2.423-1.848-2.406-2.631 0.005-0.238 0.232-0.491 0.728-0.556 0.246-0.032 0.924-0.057 1.693 0.297l0.301-1.408c-0.413-0.15-0.945-0.294-1.606-0.294-1.697 0-2.892 0.902-2.902 2.194-0.011 0.955 0.853 1.489 1.503 1.806 0.669 0.325 0.894 0.534 0.891 0.825-0.004 0.446-0.534 0.642-1.027 0.65-0.863 0.014-1.364-0.233-1.764-0.419l-0.311 1.454c0.401 0.184 1.142 0.344 1.91 0.353 1.803 0 2.983-0.891 2.989-2.271zM19.112 9.875l-2.782 6.637h-1.815l-1.369-5.297c-0.083-0.326-0.155-0.446-0.408-0.583-0.412-0.224-1.094-0.434-1.694-0.564l0.041-0.193h2.922c0.372 0 0.707 0.248 0.792 0.677l0.723 3.841 1.787-4.518h1.804z"></path>
</symbol>
<symbol id="icon-Badge-1" viewBox="0 0 43 32">
<path fill="#fff" style="fill: var(--color1, #fff)" d="M9.791 3.265h23.417c1.94 0 3.513 1.573 3.513 3.513v12.587c0 1.94-1.573 3.513-3.513 3.513h-23.417c-1.94 0-3.513-1.573-3.513-3.513v-12.587c0-1.94 1.573-3.513 3.513-3.513z"></path>
<path fill="#ff5f00" style="fill: var(--color3, #ff5f00)" d="M23.686 9.044h-4.482v8.055h4.482v-8.055z"></path>
<path fill="#eb001b" style="fill: var(--color4, #eb001b)" d="M19.489 13.071c-0.001-0.776 0.175-1.541 0.514-2.239s0.832-1.309 1.442-1.788c-0.756-0.594-1.663-0.963-2.619-1.066s-1.921 0.066-2.785 0.486c-0.865 0.42-1.593 1.075-2.103 1.89s-0.78 1.757-0.78 2.718c0 0.961 0.27 1.903 0.78 2.718s1.239 1.47 2.103 1.89c0.864 0.42 1.83 0.588 2.785 0.486s1.863-0.472 2.619-1.066c-0.61-0.479-1.103-1.090-1.442-1.788s-0.515-1.463-0.514-2.239z"></path>
<path fill="#f79e1b" style="fill: var(--color5, #f79e1b)" d="M29.733 13.071c0 0.961-0.27 1.903-0.78 2.718s-1.239 1.47-2.103 1.89c-0.865 0.42-1.83 0.588-2.785 0.486s-1.863-0.472-2.619-1.066c0.61-0.479 1.103-1.091 1.441-1.789s0.515-1.463 0.515-2.239c0-0.776-0.176-1.541-0.515-2.239s-0.832-1.309-1.441-1.789c0.756-0.594 1.663-0.963 2.619-1.066s1.921 0.066 2.785 0.486c0.864 0.42 1.593 1.075 2.103 1.89s0.78 1.757 0.78 2.718z"></path>
<path fill="#f79e1b" style="fill: var(--color5, #f79e1b)" d="M29.244 16.245v-0.165h0.067v-0.034h-0.169v0.034h0.066v0.165h0.036zM29.573 16.245v-0.199h-0.052l-0.060 0.137-0.060-0.137h-0.052v0.199h0.037v-0.15l0.056 0.129h0.038l0.056-0.13v0.15h0.037z"></path>
</symbol>
<symbol id="icon-Badge-2" viewBox="0 0 43 32">
<path fill="#fff" style="fill: var(--color1, #fff)" d="M9.539 3.265h23.417c1.94 0 3.513 1.573 3.513 3.513v12.587c0 1.94-1.573 3.513-3.513 3.513h-23.417c-1.94 0-3.513-1.573-3.513-3.513v-12.587c0-1.94 1.573-3.513 3.513-3.513z"></path>
<path fill="#253b80" style="fill: var(--color6, #253b80)" d="M12.686 10.218h-1.755c-0.12 0-0.222 0.087-0.241 0.206l-0.71 4.5c-0.014 0.089 0.055 0.169 0.145 0.169h0.838c0.12 0 0.222-0.087 0.241-0.206l0.191-1.214c0.018-0.119 0.121-0.206 0.241-0.206h0.556c1.156 0 1.823-0.559 1.998-1.668 0.079-0.485 0.003-0.866-0.224-1.133-0.249-0.293-0.692-0.448-1.279-0.448zM12.889 11.861c-0.096 0.63-0.577 0.63-1.042 0.63h-0.265l0.186-1.176c0.011-0.071 0.073-0.123 0.144-0.123h0.121c0.317 0 0.616 0 0.77 0.181 0.092 0.108 0.12 0.268 0.085 0.489zM17.933 11.841h-0.84c-0.072 0-0.134 0.052-0.145 0.123l-0.037 0.235-0.059-0.085c-0.182-0.264-0.588-0.352-0.993-0.352-0.929 0-1.722 0.703-1.877 1.69-0.080 0.492 0.034 0.963 0.313 1.291 0.256 0.302 0.623 0.428 1.059 0.428 0.748 0 1.163-0.481 1.163-0.481l-0.038 0.234c-0.014 0.089 0.055 0.169 0.144 0.169h0.757c0.12 0 0.222-0.087 0.241-0.206l0.454-2.876c0.014-0.088-0.054-0.169-0.144-0.169zM16.761 13.477c-0.081 0.48-0.462 0.802-0.948 0.802-0.244 0-0.439-0.078-0.564-0.227-0.124-0.147-0.171-0.357-0.132-0.59 0.076-0.476 0.463-0.809 0.942-0.809 0.239 0 0.433 0.079 0.56 0.229 0.128 0.151 0.179 0.362 0.142 0.595zM21.564 11.841h0.845c0.118 0 0.187 0.133 0.12 0.23l-2.809 4.054c-0.046 0.066-0.12 0.105-0.201 0.105h-0.844c-0.119 0-0.188-0.134-0.119-0.231l0.875-1.235-0.93-2.73c-0.032-0.095 0.038-0.193 0.139-0.193h0.83c0.108 0 0.203 0.071 0.234 0.174l0.494 1.649 1.165-1.716c0.046-0.067 0.121-0.107 0.202-0.107z"></path>
<path fill="#179bd7" style="fill: var(--color7, #179bd7)" d="M30.722 14.923l0.72-4.582c0.011-0.071 0.073-0.123 0.144-0.124h0.811c0.090 0 0.158 0.080 0.144 0.169l-0.71 4.5c-0.018 0.119-0.121 0.206-0.241 0.206h-0.724c-0.090 0-0.158-0.080-0.144-0.169zM25.205 10.217h-1.755c-0.12 0-0.222 0.087-0.241 0.206l-0.71 4.5c-0.014 0.089 0.055 0.169 0.144 0.169h0.901c0.084 0 0.155-0.061 0.168-0.144l0.201-1.276c0.019-0.119 0.121-0.206 0.241-0.206h0.555c1.156 0 1.823-0.559 1.998-1.668 0.079-0.485 0.003-0.866-0.224-1.133-0.249-0.293-0.691-0.448-1.279-0.448zM25.408 11.861c-0.096 0.63-0.577 0.63-1.042 0.63h-0.265l0.186-1.176c0.011-0.071 0.072-0.123 0.144-0.123h0.121c0.317 0 0.616 0 0.77 0.181 0.092 0.108 0.12 0.268 0.085 0.489zM30.451 11.841h-0.84c-0.072 0-0.134 0.052-0.144 0.123l-0.037 0.235-0.059-0.085c-0.182-0.264-0.587-0.352-0.992-0.352-0.929 0-1.722 0.703-1.876 1.69-0.080 0.492 0.034 0.963 0.313 1.291 0.257 0.302 0.623 0.428 1.059 0.428 0.748 0 1.163-0.481 1.163-0.481l-0.037 0.234c-0.014 0.089 0.055 0.169 0.145 0.169h0.757c0.12 0 0.222-0.087 0.241-0.206l0.454-2.876c0.014-0.088-0.055-0.169-0.145-0.169zM29.28 13.476c-0.081 0.48-0.462 0.802-0.948 0.802-0.244 0-0.439-0.078-0.564-0.227-0.124-0.147-0.171-0.357-0.132-0.59 0.076-0.476 0.463-0.809 0.942-0.809 0.239 0 0.433 0.079 0.561 0.229 0.128 0.151 0.179 0.362 0.142 0.595z"></path>
</symbol>
<symbol id="icon-Badge-3" viewBox="0 0 43 32">
<path fill="#fff" style="fill: var(--color1, #fff)" d="M9.941 3.265h23.417c1.94 0 3.513 1.573 3.513 3.513v12.587c0 1.94-1.573 3.513-3.513 3.513h-23.417c-1.94 0-3.513-1.573-3.513-3.513v-12.587c0-1.94 1.573-3.513 3.513-3.513z"></path>
<path fill="#000008" style="fill: var(--color8, #000008)" d="M16.274 10.502c0.203-0.254 0.341-0.595 0.305-0.944-0.297 0.015-0.66 0.196-0.87 0.45-0.189 0.218-0.355 0.573-0.312 0.907 0.334 0.029 0.667-0.167 0.878-0.414z"></path>
<path fill="#000008" style="fill: var(--color8, #000008)" d="M16.575 10.981c-0.485-0.029-0.897 0.275-1.128 0.275s-0.586-0.261-0.969-0.254c-0.499 0.007-0.962 0.289-1.215 0.738-0.521 0.898-0.137 2.229 0.369 2.96 0.246 0.362 0.542 0.76 0.933 0.746 0.369-0.014 0.514-0.239 0.962-0.239s0.578 0.239 0.969 0.232c0.405-0.007 0.658-0.362 0.904-0.724 0.282-0.412 0.398-0.81 0.405-0.832-0.007-0.007-0.781-0.304-0.788-1.194-0.007-0.745 0.608-1.1 0.637-1.122-0.347-0.514-0.89-0.571-1.078-0.586z"></path>
<path fill="#000008" style="fill: var(--color8, #000008)" d="M20.795 9.973c1.053 0 1.787 0.726 1.787 1.783 0 1.061-0.749 1.791-1.813 1.791h-1.166v1.855h-0.843v-5.429h2.035zM19.602 12.839h0.967c0.734 0 1.151-0.395 1.151-1.080s-0.418-1.076-1.148-1.076h-0.971v2.156z"></path>
<path fill="#000008" style="fill: var(--color8, #000008)" d="M22.802 14.277c0-0.692 0.531-1.117 1.471-1.17l1.084-0.064v-0.305c0-0.44-0.297-0.704-0.794-0.704-0.47 0-0.764 0.226-0.835 0.579h-0.767c0.045-0.715 0.655-1.242 1.633-1.242 0.959 0 1.573 0.508 1.573 1.302v2.728h-0.779v-0.651h-0.019c-0.229 0.44-0.73 0.719-1.249 0.719-0.775 0-1.317-0.482-1.317-1.193zM25.357 13.919v-0.312l-0.974 0.060c-0.485 0.034-0.76 0.248-0.76 0.587 0 0.346 0.286 0.572 0.722 0.572 0.568 0 1.012-0.391 1.012-0.907z"></path>
<path fill="#000008" style="fill: var(--color8, #000008)" d="M26.901 16.858v-0.658c0.060 0.015 0.195 0.015 0.263 0.015 0.376 0 0.579-0.158 0.703-0.564 0-0.008 0.072-0.241 0.072-0.245l-1.43-3.962h0.88l1.001 3.221h0.015l1.001-3.221h0.858l-1.482 4.165c-0.338 0.959-0.73 1.268-1.55 1.268-0.068 0-0.271-0.008-0.331-0.019z"></path>
</symbol>
<symbol id="icon-Badge-4" viewBox="0 0 43 32">
<path fill="#fff" style="fill: var(--color1, #fff)" d="M9.689 3.265h23.417c1.94 0 3.513 1.573 3.513 3.513v12.587c0 1.94-1.573 3.513-3.513 3.513h-23.417c-1.94 0-3.513-1.573-3.513-3.513v-12.587c0-1.94 1.573-3.513 3.513-3.513z"></path>
<path fill="#3c4043" style="fill: var(--color9, #3c4043)" d="M20.735 15.422h-0.685v-5.328h1.815c0.46 0 0.852 0.153 1.173 0.46 0.328 0.307 0.492 0.681 0.492 1.123 0 0.453-0.164 0.827-0.492 1.13-0.317 0.303-0.71 0.453-1.173 0.453h-1.13v2.161zM20.735 10.75v1.858h1.145c0.271 0 0.499-0.093 0.678-0.275 0.182-0.182 0.275-0.403 0.275-0.653 0-0.246-0.093-0.464-0.275-0.646-0.178-0.189-0.403-0.282-0.678-0.282h-1.145v-0.004z"></path>
<path fill="#3c4043" style="fill: var(--color9, #3c4043)" d="M25.321 11.656c0.506 0 0.906 0.136 1.198 0.407s0.439 0.642 0.439 1.113v2.247h-0.653v-0.506h-0.029c-0.282 0.417-0.66 0.624-1.13 0.624-0.403 0-0.738-0.118-1.009-0.357s-0.407-0.535-0.407-0.892c0-0.378 0.143-0.678 0.428-0.899 0.285-0.225 0.667-0.335 1.141-0.335 0.407 0 0.742 0.075 1.002 0.225v-0.157c0-0.239-0.093-0.439-0.282-0.606s-0.41-0.25-0.663-0.25c-0.382 0-0.685 0.16-0.906 0.485l-0.603-0.378c0.332-0.481 0.824-0.72 1.473-0.72zM24.437 14.302c0 0.178 0.075 0.328 0.228 0.446 0.15 0.118 0.328 0.178 0.531 0.178 0.289 0 0.546-0.107 0.77-0.321s0.339-0.464 0.339-0.752c-0.214-0.168-0.51-0.253-0.892-0.253-0.278 0-0.51 0.068-0.695 0.2-0.189 0.139-0.282 0.307-0.282 0.503z"></path>
<path fill="#3c4043" style="fill: var(--color9, #3c4043)" d="M30.681 11.773l-2.282 5.249h-0.706l0.849-1.837-1.505-3.413h0.745l1.084 2.618h0.014l1.056-2.618h0.745z"></path>
<path fill="#4285f4" style="fill: var(--color10, #4285f4)" d="M18.012 12.829c0-0.223-0.020-0.437-0.057-0.642h-2.87v1.177l1.653 0c-0.067 0.392-0.283 0.725-0.613 0.948v0.764h0.984c0.575-0.532 0.904-1.318 0.904-2.246z"></path>
<path fill="#34a853" style="fill: var(--color11, #34a853)" d="M16.125 14.312c-0.274 0.185-0.627 0.293-1.039 0.293-0.797 0-1.473-0.537-1.715-1.261h-1.015v0.787c0.503 0.998 1.536 1.683 2.73 1.683 0.825 0 1.518-0.271 2.023-0.739l-0.984-0.763z"></path>
<path fill="#fabb05" style="fill: var(--color12, #fabb05)" d="M13.274 12.759c0-0.203 0.034-0.4 0.096-0.585v-0.787h-1.015c-0.208 0.413-0.325 0.878-0.325 1.372s0.117 0.959 0.325 1.372l1.015-0.787c-0.062-0.185-0.096-0.381-0.096-0.585z"></path>
<path fill="#e94235" style="fill: var(--color13, #e94235)" d="M15.085 10.914c0.45 0 0.854 0.155 1.172 0.458l0.872-0.871c-0.53-0.493-1.22-0.796-2.044-0.796-1.194 0-2.227 0.685-2.73 1.683l1.015 0.787c0.242-0.724 0.918-1.261 1.715-1.261z"></path>
</symbol>
</defs>
</svg>
