<svg aria-hidden="true" style="position: absolute; width: 0; height: 0; overflow: hidden;" version="1.1" xmlns="http://www.w3.org/2000/svg" xmlns:xlink="http://www.w3.org/1999/xlink">
<defs>
<symbol id="promo" viewBox="0 0 32 32">
<path d="M30.657 15.252l-13.544-13.544c-0.253-0.254-0.553-0.456-0.884-0.593s-0.686-0.207-1.044-0.206h-12.64c-0.434 0-0.85 0.172-1.157 0.479s-0.479 0.723-0.479 1.157v12.64c-0.001 0.358 0.069 0.713 0.206 1.044s0.339 0.632 0.593 0.884l13.544 13.544c0.511 0.511 1.205 0.799 1.928 0.799s1.417-0.287 1.928-0.799l11.549-11.549c0.511-0.511 0.798-1.205 0.798-1.928s-0.287-1.417-0.798-1.928zM17.18 27.957l-12.998-13.002v-10.773h10.773l12.998 12.998-10.773 10.777zM10.727 8.546c0 0.432-0.128 0.853-0.368 1.212s-0.581 0.638-0.979 0.804c-0.399 0.165-0.837 0.208-1.261 0.124s-0.812-0.292-1.117-0.597c-0.305-0.305-0.513-0.694-0.597-1.117s-0.041-0.862 0.124-1.261c0.165-0.399 0.445-0.739 0.804-0.979s0.781-0.368 1.212-0.368c0.579 0 1.134 0.23 1.543 0.639s0.639 0.964 0.639 1.543z"></path>
</symbol>
</defs>
</svg>
