<svg aria-hidden="true" style="position: absolute; width: 0; height: 0; overflow: hidden;" version="1.1" xmlns="http://www.w3.org/2000/svg" xmlns:xlink="http://www.w3.org/1999/xlink">
<defs>
<symbol id="arrowLeft" viewBox="0 0 40 32">
<path d="M15.408 0.908l-13.5 13.5c-0.21 0.209-0.376 0.457-0.49 0.731s-0.172 0.567-0.172 0.863c0 0.296 0.058 0.589 0.172 0.863s0.28 0.522 0.49 0.731l13.5 13.5c0.423 0.423 0.996 0.66 1.594 0.66s1.171-0.237 1.594-0.66c0.423-0.423 0.66-0.996 0.66-1.594s-0.237-1.171-0.66-1.594l-9.658-9.658h27.563c0.597 0 1.169-0.237 1.591-0.659s0.659-0.994 0.659-1.591c0-0.597-0.237-1.169-0.659-1.591s-0.994-0.659-1.591-0.659h-27.563l9.66-9.658c0.423-0.423 0.66-0.996 0.66-1.594s-0.237-1.171-0.66-1.594c-0.423-0.423-0.996-0.66-1.594-0.66s-1.171 0.237-1.594 0.66l-0.002 0.004z"></path>
</symbol>
<symbol id="galochka" viewBox="0 0 30 32">
<path fill="#01ab31" style="fill: var(--color1, #01ab31)" d="M15.238 1.263c-2.938 0-5.811 0.871-8.254 2.504s-4.348 3.953-5.472 6.668c-1.125 2.715-1.419 5.702-0.845 8.584s1.988 5.529 4.066 7.607c2.078 2.078 4.725 3.493 7.607 4.066s5.869 0.279 8.584-0.846c2.715-1.124 5.035-3.029 6.668-5.472s2.504-5.316 2.504-8.254c-0.004-3.939-1.571-7.716-4.356-10.501s-6.562-4.352-10.501-4.356zM21.761 13.501l-8 8c-0.106 0.106-0.232 0.191-0.371 0.248s-0.287 0.087-0.438 0.087-0.299-0.030-0.438-0.087c-0.139-0.057-0.265-0.142-0.371-0.248l-3.429-3.429c-0.214-0.214-0.335-0.505-0.335-0.809s0.12-0.594 0.335-0.809c0.214-0.215 0.505-0.335 0.809-0.335s0.594 0.12 0.809 0.335l2.62 2.621 7.191-7.193c0.106-0.106 0.232-0.19 0.371-0.248s0.288-0.087 0.438-0.087 0.299 0.030 0.438 0.087c0.139 0.057 0.265 0.142 0.371 0.248s0.19 0.232 0.248 0.371c0.057 0.139 0.087 0.287 0.087 0.438s-0.030 0.299-0.087 0.438c-0.057 0.139-0.142 0.265-0.248 0.371z"></path>
</symbol>
<symbol id="arrowRight" viewBox="0 0 40 32">
<path d="M24.592 0.908l13.5 13.5c0.21 0.209 0.376 0.457 0.49 0.731s0.172 0.567 0.172 0.863c0 0.296-0.058 0.589-0.172 0.863s-0.28 0.522-0.49 0.731l-13.5 13.5c-0.423 0.423-0.996 0.66-1.594 0.66s-1.171-0.237-1.594-0.66c-0.423-0.423-0.66-0.996-0.66-1.594s0.237-1.171 0.66-1.594l9.658-9.658h-27.563c-0.597 0-1.169-0.237-1.591-0.659s-0.659-0.994-0.659-1.591c0-0.597 0.237-1.169 0.659-1.591s0.994-0.659 1.591-0.659h27.563l-9.66-9.658c-0.423-0.423-0.66-0.996-0.66-1.594s0.237-1.171 0.66-1.594c0.423-0.423 0.996-0.66 1.594-0.66s1.171 0.237 1.594 0.66l0.002 0.004z"></path>
</symbol>
</defs>
</svg>
