<svg aria-hidden="true" style="position: absolute; width: 0; height: 0; overflow: hidden;" version="1.1" xmlns="http://www.w3.org/2000/svg" xmlns:xlink="http://www.w3.org/1999/xlink">
<defs>
<symbol id="icon-1" viewBox="0 0 32 32">
<path fill="#fff" style="fill: var(--color1, #fff)" d="M32 16c0 8.837-7.163 16-16 16s-16-7.163-16-16c0-8.837 7.163-16 16-16s16 7.163 16 16z"></path>
<path fill="none" stroke="#000" style="stroke: var(--color2, #000)" stroke-linejoin="miter" stroke-linecap="butt" stroke-miterlimit="4" stroke-width="1.1429" d="M31.429 16c0 8.521-6.908 15.429-15.429 15.429s-15.429-6.908-15.429-15.429c0-8.521 6.908-15.429 15.429-15.429s15.429 6.908 15.429 15.429z"></path>
<path fill="#000" style="fill: var(--color2, #000)" d="M23.094 12.552c-0.479 0.213-0.984 0.346-1.516 0.426 0.532-0.319 0.958-0.825 1.144-1.437-0.506 0.293-1.064 0.505-1.676 0.639-0.479-0.505-1.171-0.825-1.915-0.825-1.437 0-2.607 1.171-2.607 2.607 0 0.213 0.027 0.399 0.080 0.585-2.155-0.106-4.097-1.144-5.401-2.74-0.213 0.399-0.346 0.825-0.346 1.304 0 0.904 0.452 1.703 1.171 2.181-0.426-0.027-0.825-0.133-1.197-0.319v0.027c0 1.277 0.905 2.341 2.102 2.581-0.213 0.053-0.452 0.080-0.692 0.080-0.16 0-0.346-0.027-0.505-0.053 0.346 1.038 1.304 1.809 2.448 1.809-0.905 0.692-2.022 1.117-3.246 1.117-0.213 0-0.426 0-0.612-0.027 1.171 0.745 2.527 1.171 4.017 1.171 4.815 0 7.449-3.991 7.449-7.449 0-0.106 0-0.239 0-0.346 0.506-0.346 0.958-0.798 1.304-1.33z"></path>
</symbol>
<symbol id="icon-2" viewBox="0 0 32 32">
<path fill="#000" style="fill: var(--color2, #000)" d="M32 16c0 8.837-7.163 16-16 16s-16-7.163-16-16c0-8.837 7.163-16 16-16s16 7.163 16 16z"></path>
<path fill="#fff" style="fill: var(--color1, #fff)" d="M14.524 23.204v-6.347h-2.136v-2.474h2.136v-1.824c0-2.117 1.293-3.27 3.181-3.27 0.905 0 1.682 0.067 1.909 0.097v2.212l-1.31 0.001c-1.027 0-1.226 0.488-1.226 1.204v1.579h2.449l-0.319 2.474h-2.13v6.347h-2.554z"></path>
</symbol>
<symbol id="icon-3" viewBox="0 0 32 32">
<path fill="#fff" style="fill: var(--color1, #fff)" d="M32 16c0 8.837-7.163 16-16 16s-16-7.163-16-16c0-8.837 7.163-16 16-16s16 7.163 16 16z"></path>
<path fill="none" stroke="#000" style="stroke: var(--color2, #000)" stroke-linejoin="miter" stroke-linecap="butt" stroke-miterlimit="4" stroke-width="1.1429" d="M31.429 16c0 8.521-6.908 15.429-15.429 15.429s-15.429-6.908-15.429-15.429c0-8.521 6.908-15.429 15.429-15.429s15.429 6.908 15.429 15.429z"></path>
<path fill="#000" style="fill: var(--color2, #000)" d="M16.001 9.654c2.067 0 2.312 0.008 3.128 0.045 0.491 0.006 0.977 0.096 1.438 0.267 0.334 0.129 0.637 0.326 0.89 0.579s0.45 0.556 0.579 0.89c0.17 0.46 0.261 0.947 0.267 1.438 0.037 0.817 0.045 1.061 0.045 3.128s-0.008 2.312-0.045 3.128c-0.006 0.491-0.096 0.977-0.267 1.438-0.129 0.334-0.326 0.637-0.579 0.89s-0.556 0.45-0.89 0.579c-0.46 0.17-0.947 0.26-1.438 0.267-0.816 0.037-1.061 0.045-3.128 0.045s-2.312-0.008-3.129-0.045c-0.491-0.006-0.977-0.096-1.438-0.267-0.334-0.129-0.637-0.326-0.89-0.579s-0.45-0.556-0.579-0.89c-0.17-0.461-0.261-0.947-0.267-1.438-0.037-0.817-0.045-1.061-0.045-3.128s0.008-2.312 0.045-3.128c0.006-0.491 0.096-0.977 0.267-1.438 0.129-0.334 0.326-0.637 0.579-0.89s0.556-0.45 0.89-0.579c0.46-0.17 0.947-0.261 1.438-0.267 0.817-0.037 1.061-0.045 3.129-0.045zM16.001 8.259c-2.101 0-2.366 0.009-3.192 0.046-0.643 0.013-1.278 0.134-1.88 0.36-0.516 0.195-0.984 0.499-1.37 0.893-0.394 0.386-0.699 0.854-0.894 1.371-0.225 0.602-0.347 1.238-0.36 1.88-0.037 0.825-0.046 1.090-0.046 3.191s0.009 2.366 0.046 3.192c0.013 0.642 0.134 1.278 0.36 1.88 0.194 0.517 0.499 0.984 0.893 1.371 0.387 0.394 0.854 0.699 1.371 0.893 0.602 0.225 1.238 0.347 1.88 0.36 0.826 0.037 1.089 0.047 3.192 0.047s2.366-0.009 3.192-0.047c0.642-0.013 1.278-0.134 1.88-0.36 0.514-0.199 0.981-0.504 1.371-0.894s0.694-0.857 0.893-1.371c0.225-0.602 0.347-1.238 0.36-1.88 0.037-0.825 0.046-1.090 0.046-3.191s-0.009-2.366-0.047-3.192c-0.013-0.643-0.134-1.278-0.36-1.88-0.195-0.517-0.499-0.985-0.893-1.371-0.387-0.394-0.855-0.699-1.371-0.893-0.602-0.225-1.238-0.347-1.88-0.36-0.825-0.037-1.090-0.046-3.191-0.046z"></path>
<path fill="#000" style="fill: var(--color2, #000)" d="M16.002 12.027c-0.786 0-1.555 0.233-2.209 0.67s-1.163 1.058-1.464 1.784c-0.301 0.726-0.38 1.526-0.226 2.297s0.532 1.48 1.088 2.036c0.556 0.556 1.264 0.935 2.036 1.088s1.571 0.075 2.297-0.226c0.726-0.301 1.347-0.811 1.784-1.464s0.67-1.422 0.67-2.209c0-1.054-0.419-2.066-1.164-2.811s-1.757-1.164-2.811-1.164zM16.002 18.583c-0.51 0-1.009-0.151-1.434-0.435s-0.755-0.687-0.95-1.158-0.246-0.991-0.147-1.491c0.1-0.501 0.345-0.96 0.706-1.321s0.821-0.607 1.321-0.706c0.501-0.1 1.020-0.048 1.491 0.147s0.875 0.526 1.158 0.95c0.284 0.424 0.435 0.923 0.435 1.434 0 0.684-0.272 1.341-0.756 1.825s-1.14 0.756-1.825 0.756z"></path>
<path fill="#000" style="fill: var(--color2, #000)" d="M20.134 12.798c0.513 0 0.929-0.416 0.929-0.929s-0.416-0.929-0.929-0.929c-0.513 0-0.929 0.416-0.929 0.929s0.416 0.929 0.929 0.929z"></path>
</symbol>
<symbol id="icon-4" viewBox="0 0 32 32">
<path fill="#fff" style="fill: var(--color1, #fff)" d="M32 16c0 8.837-7.163 16-16 16s-16-7.163-16-16c0-8.837 7.163-16 16-16s16 7.163 16 16z"></path>
<path fill="none" stroke="#000" style="stroke: var(--color2, #000)" stroke-linejoin="miter" stroke-linecap="butt" stroke-miterlimit="4" stroke-width="1.1429" d="M31.429 16c0 8.521-6.908 15.429-15.429 15.429s-15.429-6.908-15.429-15.429c0-8.521 6.908-15.429 15.429-15.429s15.429 6.908 15.429 15.429z"></path>
<path fill="#000" style="fill: var(--color2, #000)" d="M16.694 8.259c-4.104 0-7.406 3.302-7.406 7.406 0 3.271 2.129 6.048 5.061 7.035 0.37 0.062 0.494-0.154 0.494-0.37 0-0.185 0-0.648 0-1.265-2.067 0.463-2.499-0.987-2.499-0.987-0.339-0.864-0.833-1.080-0.833-1.080-0.679-0.463 0.062-0.463 0.062-0.463 0.741 0.062 1.142 0.771 1.142 0.771 0.648 1.142 1.728 0.802 2.16 0.617 0.062-0.494 0.247-0.802 0.463-0.987-1.635-0.185-3.363-0.833-3.363-3.672 0-0.802 0.278-1.481 0.771-1.975-0.062-0.185-0.339-0.926 0.062-1.975 0 0 0.617-0.185 2.037 0.771 0.586-0.154 1.234-0.247 1.851-0.247s1.265 0.093 1.851 0.247c1.419-0.957 2.037-0.771 2.037-0.771 0.401 1.018 0.154 1.759 0.062 1.975 0.463 0.525 0.771 1.173 0.771 1.975 0 2.839-1.728 3.456-3.394 3.641 0.278 0.216 0.494 0.679 0.494 1.358 0 0.987 0 1.79 0 2.037 0 0.185 0.123 0.432 0.525 0.37 2.931-0.957 5.060-3.734 5.060-7.004 0-4.104-3.302-7.406-7.406-7.406z"></path>
</symbol>
</defs>
</svg>
