<svg aria-hidden="true" style="position: absolute; width: ; height: 0; overflow: hidden;" version="1.1" xmlns="http://www.w3.org/2000/svg" xmlns:xlink="http://www.w3.org/1999/xlink">
<defs>
<symbol id="icon-Frame-1" viewBox="0 0 32 32">
<path d="M16 2.5c-2.67 0-5.28 0.792-7.5 2.275s-3.95 3.592-4.972 6.059c-1.022 2.467-1.289 5.181-0.768 7.8s1.807 5.024 3.695 6.912 4.293 3.174 6.912 3.695c2.619 0.521 5.333 0.253 7.8-0.768s4.575-2.752 6.059-4.972c1.483-2.22 2.275-4.83 2.275-7.5-0.004-3.579-1.428-7.011-3.958-9.542s-5.962-3.954-9.542-3.958zM9.946 24.571c0.696-0.952 1.607-1.727 2.659-2.26s2.215-0.812 3.394-0.812c1.18 0 2.343 0.278 3.394 0.812s1.963 1.308 2.659 2.26c-1.769 1.255-3.885 1.929-6.054 1.929s-4.284-0.674-6.054-1.929zM12.5 15c0-0.692 0.205-1.369 0.59-1.944s0.931-1.024 1.571-1.289c0.639-0.265 1.343-0.334 2.022-0.199s1.303 0.468 1.792 0.958c0.489 0.489 0.823 1.113 0.958 1.792s0.066 1.383-0.199 2.022c-0.265 0.64-0.713 1.186-1.289 1.571s-1.252 0.59-1.945 0.59c-0.928 0-1.819-0.369-2.475-1.025s-1.025-1.547-1.025-2.475zM24.25 22.493c-0.972-1.237-2.211-2.237-3.625-2.928 0.901-0.912 1.512-2.071 1.756-3.329s0.111-2.561-0.384-3.744c-0.494-1.183-1.327-2.193-2.395-2.904s-2.321-1.090-3.603-1.090-2.536 0.379-3.603 1.090c-1.067 0.711-1.9 1.721-2.395 2.904s-0.628 2.486-0.384 3.744c0.244 1.259 0.855 2.417 1.756 3.329-1.414 0.69-2.653 1.691-3.625 2.928-1.221-1.548-1.982-3.409-2.195-5.369s0.13-3.941 0.99-5.715c0.86-1.774 2.203-3.27 3.874-4.317s3.603-1.602 5.575-1.602c1.972 0 3.904 0.555 5.575 1.602s3.013 2.543 3.874 4.317c0.86 1.774 1.203 3.755 0.99 5.715s-0.974 3.821-2.195 5.369h0.013z"></path>
</symbol>
<symbol id="icon-Frame" viewBox="0 0 32 32">
<path d="M12.5 27c0 0.494-0.147 0.978-0.421 1.389s-0.665 0.732-1.122 0.921c-0.457 0.189-0.959 0.239-1.444 0.142s-0.93-0.335-1.28-0.684-0.588-0.795-0.684-1.28c-0.096-0.485-0.047-0.988 0.142-1.444s0.51-0.847 0.921-1.122c0.411-0.275 0.894-0.421 1.389-0.421 0.663 0 1.299 0.263 1.768 0.732s0.732 1.105 0.732 1.768zM23 24.5c-0.494 0-0.978 0.147-1.389 0.421s-0.732 0.665-0.921 1.122c-0.189 0.457-0.239 0.959-0.142 1.444s0.335 0.93 0.684 1.28 0.795 0.588 1.28 0.684c0.485 0.096 0.988 0.047 1.444-0.142s0.847-0.51 1.122-0.921c0.275-0.411 0.421-0.895 0.421-1.389 0-0.663-0.263-1.299-0.732-1.768s-1.105-0.732-1.768-0.732zM29.434 9.441l-3.411 11.088c-0.218 0.717-0.661 1.345-1.264 1.79s-1.333 0.684-2.082 0.681h-12.31c-0.76-0.002-1.499-0.251-2.106-0.709s-1.049-1.1-1.26-1.83l-4.274-14.961h-1.226c-0.398 0-0.779-0.158-1.061-0.439s-0.439-0.663-0.439-1.061c0-0.398 0.158-0.779 0.439-1.061s0.663-0.439 1.061-0.439h1.602c0.543 0.002 1.071 0.179 1.504 0.506s0.749 0.786 0.9 1.307l0.911 3.186h21.582c0.235 0 0.466 0.055 0.676 0.161s0.391 0.259 0.531 0.448 0.233 0.408 0.272 0.639c0.039 0.231 0.024 0.469-0.045 0.693zM25.969 10.5h-18.695l2.611 9.137c0.030 0.105 0.093 0.197 0.18 0.262s0.193 0.101 0.301 0.101h12.31c0.107 0 0.211-0.034 0.297-0.097s0.15-0.153 0.181-0.255l2.814-9.147z"></path>
</symbol>
<symbol id="x" viewBox="0 0 32 32">
<path fill="#fff" style="fill: var(--color1, #fff)" d="M30.373 27.341c0.403 0.402 0.629 0.949 0.629 1.518s-0.226 1.115-0.629 1.518c-0.402 0.403-0.948 0.629-1.518 0.629s-1.115-0.226-1.518-0.629l-11.337-11.341-11.341 11.338c-0.403 0.402-0.949 0.629-1.518 0.629s-1.115-0.226-1.518-0.629c-0.403-0.402-0.629-0.949-0.629-1.518s0.226-1.115 0.629-1.518l11.341-11.338-11.338-11.341c-0.403-0.403-0.629-0.949-0.629-1.518s0.226-1.115 0.629-1.518c0.403-0.403 0.949-0.629 1.518-0.629s1.115 0.226 1.518 0.629l11.338 11.341 11.341-11.343c0.402-0.403 0.949-0.629 1.518-0.629s1.115 0.226 1.518 0.629 0.629 0.949 0.629 1.518c0 0.569-0.226 1.115-0.629 1.518l-11.341 11.343 11.337 11.341z"></path>
</symbol>
</defs>
</svg>
