<svg aria-hidden="true" style="position: absolute; width: 0; height: 0; overflow: hidden;" version="1.1" xmlns="http://www.w3.org/2000/svg" xmlns:xlink="http://www.w3.org/1999/xlink">
<defs>
<symbol id="versace" viewBox="0 0 157 32">
<path d="M141.345 0.617h15.344v2.445c-0.446-0.15-0.912-0.227-1.383-0.228h-8.82v11.424h8.58c0.616 0 1.165-0.068 1.622-0.183v2.434c-0.389-0.091-0.924-0.137-1.588-0.137h-8.614v11.813h8.556c0.47 0 1.029-0.068 1.645-0.217v2.628h-15.32c0.122-0.462 0.184-0.938 0.184-1.416v-27.112c0-0.594-0.069-1.085-0.206-1.451zM137.793 8.397l-4.433-0.034c-0.217-2.491-1.645-4.903-4.787-5.347-6.729-0.606-8.626 6.785-8.455 12.19 0.172 5.209 1.005 13.218 7.952 13.218 2.914 0 5.712-2.994 5.621-5.518l4.102-0.034c-0.297 5.209-6.272 8.225-9.117 8.328-9.721 0.332-13.79-6.147-13.995-15.39-0.183-8.373 3.245-15.811 12.853-15.811 8.226 0.115 9.814 4.982 10.26 8.397zM68.65 27.191l2.937-2.456c1.53 2.525 2.787 3.678 5.826 3.678 3.084 0 5.678-1.873 5.678-5.186 0-1.634-0.663-2.971-1.977-3.976-0.595-0.469-2.103-1.28-4.479-2.411-3.553-1.702-7.014-3.919-7.014-8.374 0-5.621 4.775-8.101 9.813-8.284 2.982-0.114 6.684 1.532 8.18 3.382l-2.982 2.296c-0.532-0.992-1.322-1.822-2.288-2.401s-2.070-0.886-3.196-0.888c-3.805 0-6.821 4.41-3.668 7.449 0.799 0.777 2.434 1.736 4.925 2.878 3.975 1.863 7.368 4.090 7.368 9.014 0 1.702-0.446 3.29-1.325 4.741-1.77 2.925-4.73 4.387-8.865 4.387-4.753 0-5.689-1.085-8.935-3.851zM26.813 0.617h15.331v2.445c-0.445-0.15-0.912-0.227-1.382-0.228h-8.819v11.424h8.58c0.617 0 1.166-0.068 1.622-0.183v2.434c-0.389-0.091-0.925-0.137-1.576-0.137h-8.626v11.813h8.557c0.468 0 1.029-0.068 1.645-0.217v2.628h-15.308c0.112-0.464 0.169-0.939 0.171-1.416v-27.112c0-0.594-0.069-1.085-0.194-1.451zM0 0.617h5.575v0.275c0 0.251 0.080 0.582 0.217 1.005l7.859 23.66 8.066-23.764c0.125-0.399 0.194-0.788 0.194-1.177h2.708c-0.274 0.48-0.48 0.903-0.606 1.28l-9.209 27.477c-0.091 0.263-0.171 0.674-0.239 1.223h-4.57c-0.069-0.415-0.172-0.824-0.308-1.223l-9.025-27.26c-0.208-0.503-0.426-1.002-0.652-1.497h-0.011zM59.214 16.247c3.656-0.72 6.455-3.519 6.455-7.518 0-5.245-4.387-8.113-9.3-8.113h-8.98c0.125 0.458 0.194 0.937 0.194 1.44v27.099c0 0.583-0.069 1.074-0.194 1.44h5.347c-0.131-0.469-0.196-0.953-0.194-1.44v-12.452l1.713 0.183 8.958 13.709h5.381l-9.38-14.349zM58.288 13.962c-0.971 0.685-2.137 1.027-3.473 1.027h-2.285v-12.188h2.045c1.749 0 3.108 0.433 4.079 1.301 1.325 1.201 1.999 2.823 1.999 4.856 0 2.194-0.789 3.861-2.365 5.004zM113.789 29.351l-9.984-27.739c-0.111-0.321-0.177-0.655-0.195-0.994h-4.319c0 0.354-0.057 0.731-0.195 1.108l-9.676 27.626c-0.127 0.399-0.332 0.811-0.606 1.245h2.787c-0.011-0.457 0.046-0.88 0.172-1.245l2.866-8.147h11.025l2.834 8.147c0.149 0.444 0.216 0.856 0.216 1.244h5.782c-0.332-0.468-0.571-0.891-0.709-1.245zM95.396 18.999l4.661-13.538 4.788 13.538h-9.448z"></path>
</symbol>
</defs>
</svg>
