<svg aria-hidden="true" style="position: absolute; width: 0; height: 0; overflow: hidden;" version="1.1" xmlns="http://www.w3.org/2000/svg" xmlns:xlink="http://www.w3.org/1999/xlink">
<defs>
<symbol id="icon" viewBox="0 0 32 32">
<path fill="#fff" style="fill: var(--color1, #fff)" d="M29.061 10.061l-16 16c-0.139 0.14-0.305 0.251-0.487 0.327s-0.378 0.115-0.575 0.115-0.393-0.039-0.575-0.115c-0.182-0.076-0.348-0.187-0.487-0.327l-7-7c-0.14-0.14-0.25-0.305-0.326-0.487s-0.114-0.378-0.114-0.575c0-0.197 0.039-0.393 0.114-0.575s0.186-0.348 0.326-0.487c0.14-0.14 0.305-0.25 0.487-0.326s0.378-0.114 0.575-0.114c0.197 0 0.393 0.039 0.575 0.114s0.348 0.186 0.487 0.326l5.939 5.939 14.939-14.936c0.282-0.282 0.664-0.44 1.063-0.44s0.781 0.158 1.062 0.44c0.282 0.282 0.44 0.664 0.44 1.063s-0.158 0.781-0.44 1.063l-0.002-0.002z"></path>
</symbol>
</defs>
</svg>
